<svg width="38" height="39" viewBox="0 0 38 39" fill="none" xmlns="http://www.w3.org/2000/svg">
<path d="M17.2322 20.7678C18.2085 21.7441 19.7915 21.7441 20.7678 20.7678L36.6777 4.85788C37.654 3.88157 37.654 2.29865 36.6777 1.32234C35.7014 0.346031 34.1185 0.34603 33.1421 1.32234L19 15.4645L4.85788 1.32232C3.88157 0.34601 2.29865 0.346009 1.32234 1.32232C0.34603 2.29863 0.346029 3.88154 1.32234 4.85785L17.2322 20.7678ZM16.5 18L16.5 19L21.5 19L21.5 18L16.5 18Z" fill="#5A5A5A"/>
<path d="M17.2322 37.7678C18.2085 38.7441 19.7915 38.7441 20.7678 37.7678L36.6777 21.8579C37.654 20.8816 37.654 19.2987 36.6777 18.3223C35.7014 17.346 34.1185 17.346 33.1421 18.3223L19 32.4645L4.85788 18.3223C3.88157 17.346 2.29865 17.346 1.32234 18.3223C0.34603 19.2986 0.346029 20.8815 1.32234 21.8579L17.2322 37.7678ZM16.5 35L16.5 36L21.5 36L21.5 35L16.5 35Z" fill="#5A5A5A"/>
</svg>
